<svg width="16" height="18" viewBox="0 0 16 18" fill="none" xmlns="http://www.w3.org/2000/svg">
<g clip-path="url(#clip0_78_466)">
<path d="M2.66666 0H4.66666C6.13941 0 7.33331 1.34314 7.33331 2.99999V5.24999C7.33331 6.90683 6.13941 8.24998 4.66666 8.24998H2.66666C1.19391 8.25001 0 6.90687 0 5.24999V2.99999C0 1.34314 1.19391 0 2.66666 0Z" fill="black"/>
<path d="M11.3333 0H13.3333C14.8061 0 16 1.34314 16 2.99999V5.24999C16 6.90683 14.8061 8.24998 13.3333 8.24998H11.3333C9.86059 8.24998 8.66669 6.90683 8.66669 5.24999V2.99999C8.66666 1.34314 9.86056 0 11.3333 0Z" fill="black"/>
<path d="M2.66666 9.74998H4.66666C6.13941 9.74998 7.33331 11.0931 7.33331 12.75V15C7.33331 16.6568 6.13941 18 4.66666 18H2.66666C1.19391 18 0 16.6569 0 15V12.75C0 11.0931 1.19391 9.74998 2.66666 9.74998Z" fill="black"/>
<path d="M11.3333 9.74998H13.3333C14.8061 9.74998 16 11.0931 16 12.75V15C16 16.6569 14.8061 18 13.3333 18H11.3333C9.86059 18 8.66669 16.6569 8.66669 15V12.75C8.66666 11.0931 9.86056 9.74998 11.3333 9.74998Z" fill="black"/>
</g>
<defs>
<clipPath id="clip0_78_466">
<rect width="16" height="18" fill="white"/>
</clipPath>
</defs>
</svg>
