<svg width="18" height="18" viewBox="0 0 18 18" fill="none" xmlns="http://www.w3.org/2000/svg">
<path d="M14.25 7.875H7.65528L9.48453 6.04575C9.69558 5.83481 9.81418 5.54866 9.81425 5.25027C9.81432 4.95187 9.69585 4.66567 9.4849 4.45463C9.27396 4.24358 8.98781 4.12498 8.68942 4.12491C8.39103 4.12484 8.10483 4.24331 7.89378 4.45425L5.20428 7.14375C4.71286 7.63653 4.43689 8.30407 4.43689 9C4.43689 9.69594 4.71286 10.3635 5.20428 10.8563L7.89378 13.5458C8.10483 13.7567 8.39103 13.8752 8.68942 13.8751C8.98781 13.875 9.27396 13.7564 9.4849 13.5454C9.69585 13.3343 9.81432 13.0481 9.81425 12.7497C9.81418 12.4513 9.69558 12.1652 9.48453 11.9543L7.65528 10.125H14.25C14.5484 10.125 14.8345 10.0065 15.0455 9.7955C15.2565 9.58452 15.375 9.29837 15.375 9C15.375 8.70164 15.2565 8.41549 15.0455 8.20451C14.8345 7.99353 14.5484 7.875 14.25 7.875Z" fill="black"/>
</svg>
