<svg width="17" height="18" viewBox="0 0 17 18" fill="none" xmlns="http://www.w3.org/2000/svg">
<g clip-path="url(#clip0_78_474)">
<path d="M16.4751 12.15L14.6335 5.12176C14.2402 3.61832 13.3833 2.29736 12.1991 1.36912C11.015 0.440881 9.57158 -0.0413 8.09871 -0.000680233C6.62584 0.0399395 5.20813 0.601026 4.07121 1.59328C2.93428 2.58553 2.14348 3.95193 1.82467 5.47501L0.400209 12.2625C0.331283 12.5913 0.332965 12.9324 0.405129 13.2604C0.477294 13.5885 0.6181 13.8952 0.817159 14.1579C1.01622 14.4207 1.26845 14.6327 1.55525 14.7785C1.84205 14.9242 2.15609 14.9999 2.47421 15H5.02917C5.19174 15.8477 5.6261 16.6099 6.25865 17.1573C6.8912 17.7047 7.68304 18.0038 8.5 18.0038C9.31696 18.0038 10.1088 17.7047 10.7414 17.1573C11.3739 16.6099 11.8083 15.8477 11.9708 15H14.4288C14.7561 14.9999 15.0789 14.9196 15.3722 14.7656C15.6654 14.6116 15.9211 14.3879 16.1192 14.112C16.3173 13.8362 16.4526 13.5156 16.5145 13.1752C16.5764 12.8349 16.5624 12.484 16.4751 12.15ZM8.5 16.5C8.06207 16.4981 7.63539 16.3529 7.27834 16.0844C6.92129 15.8159 6.65131 15.4372 6.50533 15H10.4947C10.3487 15.4372 10.0787 15.8159 9.72166 16.0844C9.36461 16.3529 8.93794 16.4981 8.5 16.5ZM14.9919 13.2038C14.9258 13.2965 14.8401 13.3716 14.7417 13.4231C14.6433 13.4745 14.5349 13.5009 14.4252 13.5H2.47421C2.36814 13.5 2.26344 13.4747 2.16782 13.4262C2.0722 13.3776 1.98811 13.3068 1.92175 13.2192C1.85539 13.1316 1.80846 13.0294 1.78443 12.92C1.76039 12.8106 1.75986 12.6969 1.78288 12.5873L3.20733 5.79976C3.45833 4.60441 4.07951 3.53221 4.97212 2.75359C5.86472 1.97498 6.97753 1.53464 8.13363 1.50257C9.28974 1.4705 10.4228 1.84854 11.3527 2.57661C12.2826 3.30467 12.9559 4.34097 13.2657 5.52076L15.1073 12.549C15.1374 12.6601 15.1426 12.7772 15.1226 12.8908C15.1025 13.0045 15.0578 13.1116 14.9919 13.2038Z" fill="black"/>
</g>
<defs>
<clipPath id="clip0_78_474">
<rect width="17" height="18" fill="white"/>
</clipPath>
</defs>
</svg>
