<svg width="18" height="18" viewBox="0 0 18 18" fill="none" xmlns="http://www.w3.org/2000/svg">
<path d="M12.75 0H5.25C4.2558 0.00119089 3.30267 0.396661 2.59966 1.09966C1.89666 1.80267 1.50119 2.7558 1.5 3.75V15C1.5 15.7956 1.81607 16.5587 2.37868 17.1213C2.94129 17.6839 3.70435 18 4.5 18H12.75C13.7442 17.9988 14.6973 17.6033 15.4003 16.9003C16.1033 16.1973 16.4988 15.2442 16.5 14.25V3.75C16.4988 2.7558 16.1033 1.80267 15.4003 1.09966C14.6973 0.396661 13.7442 0.00119089 12.75 0ZM15 3.75V12H6V1.5H12.75C13.3467 1.5 13.919 1.73705 14.341 2.15901C14.7629 2.58097 15 3.15326 15 3.75ZM4.5 1.629V12C3.97322 11.9995 3.4557 12.1385 3 12.4028V3.75C3.00007 3.28477 3.14435 2.83099 3.41298 2.45115C3.6816 2.07131 4.06137 1.78408 4.5 1.629ZM12.75 16.5H4.5C4.10218 16.5 3.72064 16.342 3.43934 16.0607C3.15804 15.7794 3 15.3978 3 15C3 14.6022 3.15804 14.2206 3.43934 13.9393C3.72064 13.658 4.10218 13.5 4.5 13.5H15V14.25C15 14.8467 14.7629 15.419 14.341 15.841C13.919 16.2629 13.3467 16.5 12.75 16.5Z" fill="black"/>
</svg>
