<svg width="17" height="18" viewBox="0 0 17 18" fill="none" xmlns="http://www.w3.org/2000/svg">
<g clip-path="url(#clip0_78_477)">
<path d="M13.255 9H9.91667C9.54095 9 9.18062 8.84197 8.91494 8.56066C8.64926 8.27936 8.50001 7.89783 8.50001 7.5V3.9555C8.50097 3.61049 8.42699 3.26986 8.28377 2.95996C8.14056 2.65005 7.93196 2.37917 7.67409 2.16825C7.42974 1.96336 7.14418 1.82068 6.83946 1.75124C6.53475 1.6818 6.21904 1.68745 5.91671 1.76775C4.19947 2.21911 2.67916 3.27755 1.60719 4.76802C0.535233 6.2585 -0.0241652 8.09173 0.021512 9.96455C0.0671892 11.8374 0.715205 13.6376 1.85839 15.0675C3.00158 16.4974 4.57147 17.4713 6.30842 17.8283C8.26137 18.2241 10.2833 17.8143 11.9602 16.6829C13.6372 15.5516 14.8421 13.7842 15.3283 11.7428C15.4045 11.4222 15.41 11.0875 15.3446 10.7643C15.2791 10.4412 15.1444 10.1383 14.9508 9.879C14.7492 9.60634 14.4919 9.3856 14.1982 9.23336C13.9045 9.08111 13.5821 9.00133 13.255 9ZM13.9549 11.376C13.6837 12.5324 13.1272 13.5918 12.3425 14.4458C11.5577 15.2998 10.5728 15.9177 9.4885 16.2364C8.40418 16.5552 7.25937 16.5632 6.17115 16.2598C5.08293 15.9563 4.09036 15.3523 3.29497 14.5094C2.49957 13.6665 1.92989 12.615 1.6442 11.4626C1.35852 10.3101 1.36707 9.09792 1.66898 7.95008C1.9709 6.80225 2.55534 5.75992 3.36254 4.92971C4.16973 4.0995 5.17071 3.51121 6.26309 3.225C6.35654 3.20028 6.45416 3.19907 6.54814 3.22147C6.64211 3.24387 6.72983 3.28926 6.80426 3.354C6.89215 3.42496 6.96344 3.5164 7.01257 3.62123C7.06171 3.72606 7.08738 3.84147 7.08759 3.9585V7.5C7.08759 8.29565 7.3861 9.05871 7.91745 9.62132C8.44881 10.1839 9.16948 10.5 9.92092 10.5H13.2586C13.3701 10.5005 13.48 10.5277 13.5801 10.5797C13.6803 10.6317 13.7679 10.707 13.8366 10.8C13.8968 10.8799 13.9387 10.9735 13.9591 11.0734C13.9795 11.1733 13.9785 11.2769 13.9549 11.376Z" fill="black"/>
<path d="M16.7528 5.5845C16.4267 4.3151 15.7932 3.15787 14.9149 2.22733C14.0367 1.29679 12.9442 0.625191 11.7456 0.278998C11.6199 0.24323 11.4904 0.225075 11.3602 0.224998C11.1731 0.223115 10.9874 0.260523 10.814 0.335062C10.6405 0.409601 10.4828 0.519792 10.3498 0.659267C10.2168 0.798743 10.1113 0.964739 10.0392 1.14766C9.96719 1.33059 9.93011 1.52681 9.93011 1.725V5.25C9.93011 5.84674 10.154 6.41903 10.5525 6.84099C10.951 7.26295 11.4915 7.5 12.0551 7.5H15.3977C15.6164 7.49777 15.8316 7.4422 16.0267 7.33761C16.2217 7.23301 16.3914 7.08221 16.5225 6.89691C16.6535 6.71162 16.7425 6.49682 16.7825 6.2692C16.8224 6.04159 16.8122 5.80728 16.7528 5.5845ZM14.9834 6H12.0523C11.8644 6 11.6843 5.92098 11.5514 5.78033C11.4186 5.63968 11.3439 5.44891 11.3439 5.25L11.3383 1.73025C11.3435 1.72628 11.3496 1.72394 11.356 1.7235H11.3744C12.3392 2.00181 13.2182 2.54318 13.9237 3.29358C14.6292 4.04398 15.1365 4.97716 15.3949 6H14.9834Z" fill="black"/>
</g>
<defs>
<clipPath id="clip0_78_477">
<rect width="17" height="18" fill="white"/>
</clipPath>
</defs>
</svg>
