<svg width="18" height="18" viewBox="0 0 18 18" fill="none" xmlns="http://www.w3.org/2000/svg">
<g clip-path="url(#clip0_78_455)">
<path d="M9 0C4.035 0 0 4.035 0 9C0 13.965 4.035 18 9 18C13.965 18 18 13.965 18 9C18 4.035 13.965 0 9 0ZM12.8775 8.715L11.25 10.0425L11.925 12.09C12.015 12.3675 11.925 12.675 11.6925 12.8475C11.46 13.0275 11.145 13.035 10.8975 12.8775L9.0075 11.6475L7.1475 12.8925C7.035 12.9675 6.9 13.005 6.765 13.005C6.6225 13.005 6.4725 12.96 6.3525 12.87C6.12 12.6975 6.0225 12.39 6.1125 12.1125L6.7575 10.0425L5.1225 8.715C4.905 8.5275 4.8225 8.2275 4.92 7.9575C5.0175 7.6875 5.28 7.5075 5.565 7.5075H7.6275L8.355 5.55C8.4525 5.28 8.715 5.1 9 5.1C9.285 5.1 9.5475 5.28 9.645 5.55L10.3725 7.5075H12.435C12.72 7.5075 12.9825 7.6875 13.08 7.9575C13.1775 8.2275 13.095 8.535 12.8775 8.7225V8.715Z" fill="black"/>
</g>
<defs>
<clipPath id="clip0_78_455">
<rect width="18" height="18" fill="white"/>
</clipPath>
</defs>
</svg>
