<svg width="18" height="18" viewBox="0 0 18 18" fill="none" xmlns="http://www.w3.org/2000/svg">
<g clip-path="url(#clip0_78_449)">
<path d="M18 18H9.01348C7.25772 17.9992 5.54055 17.4848 4.07347 16.5202C2.60639 15.5557 1.45348 14.1831 0.756737 12.5715C0.0599991 10.9599 -0.150135 9.17968 0.152218 7.45015C0.454571 5.72061 1.2562 4.11729 2.45838 2.83766C3.66056 1.55802 5.21077 0.657969 6.91808 0.248354C8.62539 -0.161261 10.4152 -0.0625467 12.0671 0.532339C13.7191 1.12722 15.1609 2.1923 16.215 3.59638C17.2692 5.00045 17.8897 6.68221 18 8.4345V8.48175V18ZM9.01348 1.5C7.02436 1.5 5.1167 2.29018 3.71018 3.6967C2.30366 5.10322 1.51348 7.01088 1.51348 9C1.51348 10.9891 2.30366 12.8968 3.71018 14.3033C5.1167 15.7098 7.02436 16.5 9.01348 16.5H16.5V8.50575C16.3714 6.60699 15.527 4.82777 14.1374 3.52742C12.7479 2.22707 10.9166 1.50249 9.01348 1.5Z" fill="black"/>
<path d="M9.75 5.25H5.25V6.75H9.75V5.25Z" fill="black"/>
<path d="M12.75 8.25H5.25V9.75H12.75V8.25Z" fill="black"/>
<path d="M12.75 11.25H5.25V12.75H12.75V11.25Z" fill="black"/>
</g>
<defs>
<clipPath id="clip0_78_449">
<rect width="18" height="18" fill="white"/>
</clipPath>
</defs>
</svg>
