<svg width="18" height="18" viewBox="0 0 18 18" fill="none" xmlns="http://www.w3.org/2000/svg">
<g clip-path="url(#clip0_78_480)">
<path d="M16.5 4.23284V1.87484C16.5 1.25309 15.996 0.749837 15.375 0.749837C14.754 0.749837 14.25 1.25309 14.25 1.87484V2.69159L11.307 0.705587C9.90525 -0.240913 8.09475 -0.240913 6.693 0.705587L1.818 3.99509C0.6795 4.76309 0 6.04109 0 7.41434V13.8748C0 16.1496 1.851 17.9998 4.125 17.9998H6.375C6.996 17.9998 7.5 17.4966 7.5 16.8748V10.8748C7.5 10.6678 7.66875 10.4998 7.875 10.4998H10.125C10.3313 10.4998 10.5 10.6678 10.5 10.8748V16.8748C10.5 17.4966 11.004 17.9998 11.625 17.9998H13.875C16.149 17.9998 18 16.1496 18 13.8748V7.41434C18 6.17384 17.4457 5.01134 16.5 4.23284ZM15.75 13.8748C15.75 14.9083 14.9093 15.7498 13.875 15.7498H12.75V10.8748C12.75 9.42734 11.5725 8.24984 10.125 8.24984H7.875C6.4275 8.24984 5.25 9.42734 5.25 10.8748V15.7498H4.125C3.09075 15.7498 2.25 14.9083 2.25 13.8748V7.41434C2.25 6.78959 2.559 6.20909 3.0765 5.85959L7.9515 2.57009C8.589 2.14034 9.41175 2.14034 10.0492 2.57009L14.9242 5.86034C15.441 6.20909 15.7507 6.79034 15.7507 7.41434L15.75 13.8748Z" fill="black"/>
</g>
<defs>
<clipPath id="clip0_78_480">
<rect width="18" height="18" fill="white"/>
</clipPath>
</defs>
</svg>
