<svg width="18" height="18" viewBox="0 0 18 18" fill="none" xmlns="http://www.w3.org/2000/svg">
<g clip-path="url(#clip0_78_457)">
<path d="M17.6706 16.0839L14.1868 12.5986C16.7936 9.115 16.0828 4.17775 12.5992 1.57096C9.11561 -1.03583 4.17836 -0.325041 1.57157 3.15854C-1.03522 6.64212 -0.324431 11.5794 3.15915 14.1862C5.95745 16.2802 9.80086 16.2802 12.5992 14.1862L16.0845 17.6715C16.5225 18.1095 17.2326 18.1095 17.6706 17.6715C18.1086 17.2335 18.1086 16.5234 17.6706 16.0854L17.6706 16.0839ZM7.90822 13.5135C4.81217 13.5135 2.30237 11.0036 2.30237 7.90761C2.30237 4.81156 4.81217 2.30176 7.90822 2.30176C11.0043 2.30176 13.5141 4.81156 13.5141 7.90761C13.5108 11.0022 11.0029 13.5102 7.90822 13.5135Z" fill="black"/>
</g>
<defs>
<clipPath id="clip0_78_457">
<rect width="18" height="18" fill="white"/>
</clipPath>
</defs>
</svg>
